<svg width="72" height="16" viewBox="0 0 72 16" fill="none" xmlns="http://www.w3.org/2000/svg">
<path fill-rule="evenodd" clip-rule="evenodd" d="M15.528 2.95383C15.6672 3.00939 15.7866 3.10539 15.8707 3.22945C15.9549 3.35351 15.9999 3.49993 16 3.64983V12.3118C15.9999 12.4617 15.9549 12.6081 15.8707 12.7322C15.7866 12.8563 15.6672 12.9523 15.528 13.0078L8.278 15.9078C8.09922 15.9793 7.89978 15.9793 7.721 15.9078L0.471 13.0078C0.331969 12.9521 0.212805 12.856 0.128861 12.732C0.0449156 12.6079 3.48599e-05 12.4616 0 12.3118L0 3.64983C3.48599e-05 3.50005 0.0449156 3.35371 0.128861 3.22966C0.212805 3.10561 0.331969 3.00954 0.471 2.95383L7.443 0.164825L7.447 0.163825L7.721 0.0538255C7.90008 -0.0179418 8.09992 -0.0179418 8.279 0.0538255L8.553 0.163825L8.557 0.164825L15.528 2.95383ZM14.154 3.48083L8 5.94283L1.846 3.48083L1 3.81983V4.21983L7.5 6.81983V14.7418L8 14.9418L8.5 14.7418V6.82083L15 4.22083V3.82083L14.154 3.48083Z" fill="black"/>
<path d="M27.0227 6C26.929 5.71307 26.8054 5.45597 26.652 5.22869C26.5014 4.99858 26.321 4.80256 26.1108 4.64062C25.9034 4.47869 25.6676 4.35511 25.4034 4.26989C25.1392 4.18466 24.8494 4.14205 24.5341 4.14205C24.017 4.14205 23.5469 4.27557 23.1236 4.54261C22.7003 4.80966 22.3636 5.20312 22.1136 5.72301C21.8636 6.2429 21.7386 6.88068 21.7386 7.63636C21.7386 8.39205 21.8651 9.02983 22.1179 9.54972C22.3707 10.0696 22.7131 10.4631 23.1449 10.7301C23.5767 10.9972 24.0625 11.1307 24.6023 11.1307C25.1023 11.1307 25.5426 11.0241 25.9233 10.8111C26.3068 10.5952 26.6051 10.2912 26.8182 9.89915C27.0341 9.50426 27.142 9.03977 27.142 8.50568L27.4659 8.57386H24.8409V7.63636H28.1648V8.57386C28.1648 9.29261 28.0114 9.91761 27.7045 10.4489C27.4006 10.9801 26.9801 11.392 26.4432 11.6847C25.9091 11.9744 25.2955 12.1193 24.6023 12.1193C23.8295 12.1193 23.1506 11.9375 22.5653 11.5739C21.983 11.2102 21.5284 10.6932 21.2017 10.0227C20.8778 9.35227 20.7159 8.55682 20.7159 7.63636C20.7159 6.94602 20.8082 6.32528 20.9929 5.77415C21.1804 5.22017 21.4446 4.74858 21.7855 4.35938C22.1264 3.97017 22.5298 3.67188 22.9957 3.46449C23.4616 3.2571 23.9744 3.15341 24.5341 3.15341C24.9943 3.15341 25.4233 3.22301 25.821 3.36222C26.2216 3.49858 26.5781 3.69318 26.8906 3.94602C27.206 4.19602 27.4688 4.49574 27.679 4.84517C27.8892 5.19176 28.0341 5.5767 28.1136 6H27.0227ZM32.4975 12.1364C31.9066 12.1364 31.3881 11.9957 30.9421 11.7145C30.4989 11.4332 30.1523 11.0398 29.9023 10.5341C29.6552 10.0284 29.5316 9.4375 29.5316 8.76136C29.5316 8.07955 29.6552 7.48437 29.9023 6.97585C30.1523 6.46733 30.4989 6.07244 30.9421 5.79119C31.3881 5.50994 31.9066 5.36932 32.4975 5.36932C33.0884 5.36932 33.6055 5.50994 34.0487 5.79119C34.4947 6.07244 34.8413 6.46733 35.0884 6.97585C35.3384 7.48437 35.4634 8.07955 35.4634 8.76136C35.4634 9.4375 35.3384 10.0284 35.0884 10.5341C34.8413 11.0398 34.4947 11.4332 34.0487 11.7145C33.6055 11.9957 33.0884 12.1364 32.4975 12.1364ZM32.4975 11.233C32.9464 11.233 33.3157 11.1179 33.6055 10.8878C33.8952 10.6577 34.1097 10.3551 34.2489 9.98011C34.3881 9.60511 34.4577 9.19886 34.4577 8.76136C34.4577 8.32386 34.3881 7.91619 34.2489 7.53835C34.1097 7.16051 33.8952 6.85511 33.6055 6.62216C33.3157 6.3892 32.9464 6.27273 32.4975 6.27273C32.0487 6.27273 31.6793 6.3892 31.3896 6.62216C31.0998 6.85511 30.8853 7.16051 30.7461 7.53835C30.6069 7.91619 30.5373 8.32386 30.5373 8.76136C30.5373 9.19886 30.6069 9.60511 30.7461 9.98011C30.8853 10.3551 31.0998 10.6577 31.3896 10.8878C31.6793 11.1179 32.0487 11.233 32.4975 11.233ZM39.6577 12.1364C39.0668 12.1364 38.5483 11.9957 38.1023 11.7145C37.6591 11.4332 37.3125 11.0398 37.0625 10.5341C36.8153 10.0284 36.6918 9.4375 36.6918 8.76136C36.6918 8.07955 36.8153 7.48437 37.0625 6.97585C37.3125 6.46733 37.6591 6.07244 38.1023 5.79119C38.5483 5.50994 39.0668 5.36932 39.6577 5.36932C40.2486 5.36932 40.7656 5.50994 41.2088 5.79119C41.6548 6.07244 42.0014 6.46733 42.2486 6.97585C42.4986 7.48437 42.6236 8.07955 42.6236 8.76136C42.6236 9.4375 42.4986 10.0284 42.2486 10.5341C42.0014 11.0398 41.6548 11.4332 41.2088 11.7145C40.7656 11.9957 40.2486 12.1364 39.6577 12.1364ZM39.6577 11.233C40.1065 11.233 40.4759 11.1179 40.7656 10.8878C41.0554 10.6577 41.2699 10.3551 41.4091 9.98011C41.5483 9.60511 41.6179 9.19886 41.6179 8.76136C41.6179 8.32386 41.5483 7.91619 41.4091 7.53835C41.2699 7.16051 41.0554 6.85511 40.7656 6.62216C40.4759 6.3892 40.1065 6.27273 39.6577 6.27273C39.2088 6.27273 38.8395 6.3892 38.5497 6.62216C38.2599 6.85511 38.0455 7.16051 37.9062 7.53835C37.767 7.91619 37.6974 8.32386 37.6974 8.76136C37.6974 9.19886 37.767 9.60511 37.9062 9.98011C38.0455 10.3551 38.2599 10.6577 38.5497 10.8878C38.8395 11.1179 39.2088 11.233 39.6577 11.233ZM46.6303 12.1364C46.0849 12.1364 45.6033 11.9986 45.1857 11.723C44.7681 11.4446 44.4414 11.0526 44.2056 10.5469C43.9698 10.0384 43.8519 9.4375 43.8519 8.74432C43.8519 8.05682 43.9698 7.46023 44.2056 6.95455C44.4414 6.44886 44.7695 6.05824 45.19 5.78267C45.6104 5.5071 46.0962 5.36932 46.6474 5.36932C47.0735 5.36932 47.4102 5.44034 47.6573 5.58239C47.9073 5.72159 48.0977 5.88068 48.2283 6.05966C48.3619 6.2358 48.4656 6.38068 48.5394 6.49432H48.6246V3.27273H49.6303V12H48.6587V10.9943H48.5394C48.4656 11.1136 48.3604 11.2642 48.2241 11.446C48.0877 11.625 47.8931 11.7855 47.6403 11.9276C47.3874 12.0668 47.0508 12.1364 46.6303 12.1364ZM46.7667 11.233C47.1701 11.233 47.511 11.1278 47.7894 10.9176C48.0678 10.7045 48.2795 10.4105 48.4244 10.0355C48.5692 9.65767 48.6417 9.22159 48.6417 8.72727C48.6417 8.23864 48.5707 7.81108 48.4286 7.4446C48.2866 7.07528 48.0763 6.78835 47.7979 6.58381C47.5195 6.37642 47.1758 6.27273 46.7667 6.27273C46.3406 6.27273 45.9854 6.3821 45.7013 6.60085C45.4201 6.81676 45.2085 7.1108 45.0664 7.48295C44.9272 7.85227 44.8576 8.26705 44.8576 8.72727C44.8576 9.19318 44.9286 9.61648 45.0707 9.99716C45.2156 10.375 45.4286 10.6761 45.7099 10.9006C45.994 11.1222 46.3462 11.233 46.7667 11.233ZM51.6119 12V5.45455H52.6175V12H51.6119ZM52.1232 4.36364C51.9272 4.36364 51.7582 4.29688 51.6161 4.16335C51.4769 4.02983 51.4073 3.86932 51.4073 3.68182C51.4073 3.49432 51.4769 3.33381 51.6161 3.20028C51.7582 3.06676 51.9272 3 52.1232 3C52.3192 3 52.4869 3.06676 52.6261 3.20028C52.7681 3.33381 52.8391 3.49432 52.8391 3.68182C52.8391 3.86932 52.7681 4.02983 52.6261 4.16335C52.4869 4.29688 52.3192 4.36364 52.1232 4.36364ZM57.2038 12.1364C56.5732 12.1364 56.0291 11.9972 55.5717 11.7188C55.1172 11.4375 54.7663 11.0455 54.5192 10.5426C54.2749 10.0369 54.1527 9.44886 54.1527 8.77841C54.1527 8.10795 54.2749 7.51705 54.5192 7.00568C54.7663 6.49148 55.1101 6.09091 55.5504 5.80398C55.9936 5.5142 56.5107 5.36932 57.1016 5.36932C57.4425 5.36932 57.7791 5.42614 58.1115 5.53977C58.4439 5.65341 58.7464 5.83807 59.0192 6.09375C59.2919 6.34659 59.5092 6.68182 59.6712 7.09943C59.8331 7.51705 59.9141 8.03125 59.9141 8.64205V9.06818H54.8686V8.19886H58.8913C58.8913 7.82955 58.8175 7.5 58.6697 7.21023C58.5249 6.92045 58.3175 6.69176 58.0476 6.52415C57.7805 6.35653 57.4652 6.27273 57.1016 6.27273C56.701 6.27273 56.3544 6.37216 56.0618 6.57102C55.772 6.76705 55.549 7.02273 55.3928 7.33807C55.2365 7.65341 55.1584 7.99148 55.1584 8.35227V8.93182C55.1584 9.42614 55.2436 9.84517 55.4141 10.1889C55.5874 10.5298 55.8274 10.7898 56.1342 10.9688C56.4411 11.1449 56.7976 11.233 57.2038 11.233C57.468 11.233 57.7067 11.196 57.9197 11.1222C58.1357 11.0455 58.3217 10.9318 58.478 10.7812C58.6342 10.6278 58.755 10.4375 58.8402 10.2102L59.8118 10.483C59.7095 10.8125 59.5376 11.1023 59.2962 11.3523C59.0547 11.5994 58.7564 11.7926 58.4013 11.9318C58.0462 12.0682 57.647 12.1364 57.2038 12.1364ZM66.0803 6.92045L65.1768 7.17614C65.12 7.02557 65.0362 6.87926 64.9254 6.73722C64.8175 6.59233 64.6697 6.47301 64.4822 6.37926C64.2947 6.28551 64.0547 6.23864 63.7621 6.23864C63.3615 6.23864 63.0277 6.33097 62.7607 6.51562C62.4964 6.69744 62.3643 6.92898 62.3643 7.21023C62.3643 7.46023 62.4553 7.65767 62.6371 7.80256C62.8189 7.94744 63.103 8.06818 63.4893 8.16477L64.4609 8.40341C65.0462 8.54545 65.4822 8.76278 65.7692 9.0554C66.0561 9.34517 66.1996 9.71875 66.1996 10.1761C66.1996 10.5511 66.0916 10.8864 65.8757 11.1818C65.6626 11.4773 65.3643 11.7102 64.9808 11.8807C64.5973 12.0511 64.1513 12.1364 63.6428 12.1364C62.9751 12.1364 62.4226 11.9915 61.9851 11.7017C61.5476 11.4119 61.2706 10.9886 61.1541 10.4318L62.1087 10.1932C62.1996 10.5455 62.3714 10.8097 62.6243 10.9858C62.88 11.1619 63.2138 11.25 63.6257 11.25C64.0945 11.25 64.4666 11.1506 64.7422 10.9517C65.0206 10.75 65.1598 10.5085 65.1598 10.2273C65.1598 10 65.0803 9.80966 64.9212 9.65625C64.7621 9.5 64.5178 9.38352 64.1882 9.30682L63.0973 9.05114C62.4979 8.90909 62.0575 8.68892 61.7763 8.39062C61.4979 8.08949 61.3587 7.71307 61.3587 7.26136C61.3587 6.89205 61.4624 6.56534 61.6697 6.28125C61.88 5.99716 62.1655 5.77415 62.5263 5.61222C62.8899 5.45028 63.3018 5.36932 63.7621 5.36932C64.4098 5.36932 64.9183 5.51136 65.2876 5.79545C65.6598 6.07955 65.924 6.45455 66.0803 6.92045Z" fill="black"/>
</svg>
